<?xml version="1.0" encoding="UTF-8"?><svg id="_イヤー_1" xmlns="http://www.w3.org/2000/svg" viewBox="0 0 641.99 658.86"><defs><style>.cls-1{font-family:BennetBannerCondensed-Black, 'Bennet Banner Condensed';font-size:123.61px;}.cls-1,.cls-2{fill:#c1aa80;}.cls-3{fill:none;stroke:#c1aa80;stroke-linecap:round;stroke-linejoin:round;stroke-width:11px;}</style></defs><g><text class="cls-1" transform="translate(143.35 545.36)"><tspan x="0" y="0">thena</tspan></text><path class="cls-2" d="M479.25,430.86l-34.5-24.5c-5.65-17.97-22.1-65.22-22.1-65.22l-4.2-11.51s-18.71-51.07-27.7-74.76c-25.82-67.6-47.67-121.09-60.17-148.9,7.04-2.39,12.1-9.05,12.1-16.89,0-9.86-7.99-17.84-17.84-17.84s-17.84,7.98-17.84,17.84c0,7.69,4.87,14.25,11.7,16.76L181.75,403.86l-40.5,27c-2.5,1.5-3,4-.5,4h95.5c2.5,0,2.5-3,.5-4l-39-27,33-84.5h89c4.54,13.09,17.77,49.84,17.77,49.84,0,0,10.87,29.07,14.23,37.16l-39,24.5c-2.5,1-3,4,0,4h166c2.5,0,3-2,.5-4Zm-246-118.5l47-109.5c9,30.5,25,74,37,109.5h-84Z"/></g><path class="cls-3" d="M5.5,226.34C27.9,159.47,72.2,99.41,135.9,57.96,285.83-39.61,486.47,2.84,584.04,152.77s55.12,350.57-94.81,448.13c-149.93,97.57-350.57,55.12-448.13-94.81-11.05-16.99-20.31-34.63-27.82-52.69"/></svg>